<?xml version="1.0"?>
<svg xmlns="http://www.w3.org/2000/svg" height="512px" viewBox="-35 0 512 512" width="512px"><path d="m335.207031 61.703125h-321.382812c-7.621094 0-13.824219 6.203125-13.824219 13.828125v422.644531c0 7.621094 6.203125 13.824219 13.824219 13.824219h321.382812c7.625 0 13.828125-6.203125 13.828125-13.824219v-422.644531c0-7.625-6.203125-13.828125-13.828125-13.828125zm-320.207031 15h152.015625v420.296875h-152.015625zm319.035156 420.296875h-152.019531v-420.296875h152.015625v420.296875zm0 0" fill="#FFFFFF"/><path d="m134.863281 52.464844h24.652344c4.140625 0 7.5-3.355469 7.5-7.5 0-4.140625-3.359375-7.5-7.5-7.5h-24.152344v-22.464844h78.304688v22.464844h-24.152344c-4.140625 0-7.5 3.359375-7.5 7.5 0 4.144531 3.359375 7.5 7.5 7.5h24.652344c7.996093 0 14.5-6.503906 14.5-14.5v-23.464844c0-7.996094-6.503907-14.5-14.5-14.5h-79.304688c-7.996093 0-14.5 6.503906-14.5 14.5v23.464844c0 7.996094 6.503907 14.5 14.5 14.5zm0 0" fill="#FFFFFF"/><path d="m390.019531 284.171875c3.296875 2.507813 8.003907 1.867187 10.511719-1.429687l3.601562-4.734376 3.597657 4.734376c1.476562 1.941406 3.710937 2.960937 5.976562 2.960937 1.582031 0 3.179688-.5 4.535157-1.53125 3.296874-2.507813 3.9375-7.210937 1.429687-10.507813l-9.570313-12.585937c-1.417968-1.867187-3.625-2.960937-5.96875-2.960937s-4.554687 1.09375-5.972656 2.960937l-9.566406 12.585937c-2.507812 3.296876-1.871094 8 1.425781 10.507813zm0 0" fill="#FFFFFF"/><path d="m388.589844 313.109375 9.570312 12.585937c1.417969 1.867188 3.628906 2.960938 5.972656 2.960938 2.339844 0 4.550782-1.09375 5.96875-2.960938l9.570313-12.585937c2.507813-3.296875 1.867187-8-1.433594-10.507813-3.292969-2.507812-8-1.867187-10.507812 1.429688l-3.601563 4.734375-3.597656-4.734375c-2.507812-3.296875-7.214844-3.9375-10.511719-1.429688-3.296875 2.507813-3.933593 7.210938-1.429687 10.507813zm0 0" fill="#FFFFFF"/><path d="m425.03125 230.921875h-41.800781c-9.144531 0-16.585938 7.4375-16.585938 16.582031v30.882813c0 4.140625 3.359375 7.5 7.5 7.5 4.144531 0 7.5-3.359375 7.5-7.5v-30.882813c0-.871094.710938-1.582031 1.585938-1.582031h41.800781c.875 0 1.585938.710937 1.585938 1.582031v91.765625c0 .871094-.710938 1.582031-1.585938 1.582031h-41.800781c-.875 0-1.585938-.710937-1.585938-1.582031v-30.882812c0-4.144531-3.355469-7.5-7.5-7.5-4.140625 0-7.5 3.355469-7.5 7.5v30.882812c0 9.144531 7.441407 16.582031 16.585938 16.582031h41.800781c9.144531 0 16.585938-7.4375 16.585938-16.582031v-91.765625c0-9.144531-7.441407-16.582031-16.585938-16.582031zm0 0" fill="#FFFFFF"/></svg>
