<?xml version="1.0" encoding="iso-8859-1"?>
<!-- Generator: Adobe Illustrator 19.0.0, SVG Export Plug-In . SVG Version: 6.00 Build 0)  -->
<svg xmlns="http://www.w3.org/2000/svg" xmlns:xlink="http://www.w3.org/1999/xlink" version="1.1" id="Capa_1" x="0px" y="0px" viewBox="0 0 496 496" style="enable-background:new 0 0 496 496;" xml:space="preserve" width="512px" height="512px">
<g>
	<g>
		<path d="M368,160v80h48v-80H368z M400,224h-16v-48h16V224z" fill="#FFFFFF"/>
	</g>
</g>
<g>
	<g>
		<polygon points="392,252.688 370.344,274.344 381.656,285.656 392,275.312 402.344,285.656 413.656,274.344   " fill="#FFFFFF"/>
	</g>
</g>
<g>
	<g>
		<polygon points="402.344,306.344 392,316.688 381.656,306.344 370.344,317.656 392,339.312 413.656,317.656   " fill="#FFFFFF"/>
	</g>
</g>
<g>
	<g>
		<path d="M464,48V0H32v48h16v432H32v16h432v-16h-16V48H464z M96,480H64V48h32V480z M168,336c-13.232,0-24-10.768-24-24v-24h24V336z     M264,480h-32V368h-16v112h-32V328h80V480z M264,312h-80v-64h-16v24h-24v-42.52c0-18.392,12.456-34.344,30.304-38.808L192,186.248    V192c0,17.648,14.352,32,32,32s32-14.352,32-32v-5.752l17.704,4.424C291.544,195.136,304,211.088,304,229.48V272h-24v-24h-16V312z     M224,176c-17.648,0-32-14.352-32-32v-16c0-17.648,14.352-32,32-32s32,14.352,32,32v16C256,161.648,241.648,176,224,176z     M240,189.2v2.8c0,8.824-7.176,16-16,16c-8.824,0-16-7.176-16-16v-2.8c5.016,1.784,10.384,2.8,16,2.8    C229.616,192,234.984,190.976,240,189.2z M304,288v24c0,13.232-10.768,24-24,24v-48H304z M336,480h-56V352    c22.056,0,40-17.944,40-40v-82.52c0-25.752-17.448-48.088-42.416-54.32l-14.352-3.592C268.736,163.76,272,154.264,272,144v-16    c0-26.472-21.528-48-48-48s-48,21.528-48,48v16c0,10.264,3.264,19.76,8.768,27.568l-14.344,3.592    C145.448,181.392,128,203.728,128,229.48V312c0,22.056,17.944,40,40,40v128h-56V48h224V480z M432,480h-80V368h80V480z M432,352    h-80V144h80V352z M432,128h-80V48h80V128z M48,32V16h400v16H48z" fill="#FFFFFF"/>
	</g>
</g>
<g>
	<g>
		<rect y="480" width="16" height="16" fill="#FFFFFF"/>
	</g>
</g>
<g>
	<g>
		<rect x="480" y="480" width="16" height="16" fill="#FFFFFF"/>
	</g>
</g>
<g>
</g>
<g>
</g>
<g>
</g>
<g>
</g>
<g>
</g>
<g>
</g>
<g>
</g>
<g>
</g>
<g>
</g>
<g>
</g>
<g>
</g>
<g>
</g>
<g>
</g>
<g>
</g>
<g>
</g>
</svg>
